<svg xmlns="http://www.w3.org/2000/svg" xmlns:xlink="http://www.w3.org/1999/xlink" width="285" zoomAndPan="magnify" viewBox="0 0 213.75 36.000001" height="48" preserveAspectRatio="xMidYMid meet" version="1.2"><defs/><g id="93e6dbfe3c"><g style="fill:#ffffff;fill-opacity:1;"><g transform="translate(2.303772, 27.612138)"><path style="stroke:none" d="M 17.0625 -5.8125 C 17.0625 -4 16.425781 -2.578125 15.15625 -1.546875 C 13.882812 -0.515625 12.125 0 9.875 0 L 1.890625 0 L 1.890625 -19.328125 L 9.640625 -19.328125 C 11.773438 -19.328125 13.453125 -18.875 14.671875 -17.96875 C 15.890625 -17.0625 16.5 -15.773438 16.5 -14.109375 C 16.5 -12.453125 15.664062 -11.125 14 -10.125 C 16.039062 -9.257812 17.0625 -7.820312 17.0625 -5.8125 Z M 9.234375 -15.3125 L 6.484375 -15.3125 L 6.484375 -11.984375 L 9.234375 -11.984375 C 10.890625 -11.984375 11.71875 -12.546875 11.71875 -13.671875 C 11.71875 -14.765625 10.890625 -15.3125 9.234375 -15.3125 Z M 9.46875 -7.96875 L 6.484375 -7.96875 L 6.484375 -4.015625 L 9.46875 -4.015625 C 11.34375 -4.015625 12.28125 -4.675781 12.28125 -6 C 12.28125 -6.613281 12.046875 -7.09375 11.578125 -7.4375 C 11.109375 -7.789062 10.40625 -7.96875 9.46875 -7.96875 Z M 9.46875 -7.96875 "/></g></g><g style="fill:#ffffff;fill-opacity:1;"><g transform="translate(20.022314, 27.612138)"><path style="stroke:none" d="M 15.5625 -4.421875 L 15.5625 0 L 1.890625 0 L 1.890625 -19.328125 L 15.375 -19.328125 L 15.375 -14.921875 L 6.96875 -14.921875 L 6.96875 -12.140625 L 14.59375 -12.140625 L 14.59375 -7.734375 L 6.96875 -7.734375 L 6.96875 -4.421875 Z M 15.5625 -4.421875 "/></g></g><g style="fill:#ffffff;fill-opacity:1;"><g transform="translate(36.609885, 27.612138)"><path style="stroke:none" d="M 10.796875 0.40625 C 7.941406 0.40625 5.550781 -0.539062 3.625 -2.4375 C 1.707031 -4.34375 0.75 -6.785156 0.75 -9.765625 C 0.75 -12.617188 1.6875 -14.992188 3.5625 -16.890625 C 5.4375 -18.785156 7.796875 -19.734375 10.640625 -19.734375 C 13.023438 -19.734375 15.078125 -19.09375 16.796875 -17.8125 C 18.523438 -16.53125 19.726562 -14.789062 20.40625 -12.59375 L 14.375 -12.59375 C 14.125 -13.363281 13.648438 -13.988281 12.953125 -14.46875 C 12.265625 -14.945312 11.445312 -15.1875 10.5 -15.1875 C 9.164062 -15.1875 8.078125 -14.710938 7.234375 -13.765625 C 6.398438 -12.828125 5.984375 -11.453125 5.984375 -9.640625 C 5.984375 -7.929688 6.410156 -6.546875 7.265625 -5.484375 C 8.128906 -4.429688 9.394531 -3.90625 11.0625 -3.90625 C 12.125 -3.90625 13.003906 -4.164062 13.703125 -4.6875 C 14.398438 -5.207031 14.898438 -5.894531 15.203125 -6.75 L 10.546875 -6.75 L 10.546875 -10.765625 L 20.65625 -10.765625 C 20.84375 -7.535156 20.035156 -4.863281 18.234375 -2.75 C 16.429688 -0.644531 13.953125 0.40625 10.796875 0.40625 Z M 10.796875 0.40625 "/></g></g><g style="fill:#ffffff;fill-opacity:1;"><g transform="translate(58.044476, 27.612138)"><path style="stroke:none" d="M 17.8125 -2.453125 C 15.894531 -0.546875 13.523438 0.40625 10.703125 0.40625 C 7.890625 0.40625 5.523438 -0.546875 3.609375 -2.453125 C 1.703125 -4.367188 0.75 -6.78125 0.75 -9.6875 C 0.75 -12.59375 1.703125 -14.992188 3.609375 -16.890625 C 5.523438 -18.785156 7.894531 -19.734375 10.71875 -19.734375 C 13.550781 -19.734375 15.921875 -18.785156 17.828125 -16.890625 C 19.742188 -14.992188 20.703125 -12.59375 20.703125 -9.6875 C 20.703125 -6.78125 19.738281 -4.367188 17.8125 -2.453125 Z M 7.234375 -5.734375 C 8.078125 -4.671875 9.234375 -4.140625 10.703125 -4.140625 C 12.179688 -4.140625 13.34375 -4.671875 14.1875 -5.734375 C 15.03125 -6.796875 15.453125 -8.113281 15.453125 -9.6875 C 15.453125 -11.269531 15.03125 -12.582031 14.1875 -13.625 C 13.34375 -14.664062 12.179688 -15.1875 10.703125 -15.1875 C 9.234375 -15.1875 8.078125 -14.664062 7.234375 -13.625 C 6.398438 -12.582031 5.984375 -11.269531 5.984375 -9.6875 C 5.984375 -8.113281 6.398438 -6.796875 7.234375 -5.734375 Z M 7.234375 -5.734375 "/></g></g><g style="fill:#ffffff;fill-opacity:1;"><g transform="translate(78.5635, 27.612138)"><path style="stroke:none" d="M 19.296875 -19.328125 L 12.40625 0 L 6.859375 0 L 0.03125 -19.328125 L 5.546875 -19.328125 L 9.796875 -5.953125 L 14.1875 -19.328125 Z M 19.296875 -19.328125 "/></g></g><g style="fill:#ffffff;fill-opacity:1;"><g transform="translate(97.897716, 27.612138)"><path style="stroke:none" d=""/></g></g><g style="fill:#ffffff;fill-opacity:1;"><g transform="translate(103.525641, 27.612138)"><path style="stroke:none" d="M 17.359375 -6.328125 C 17.359375 -4.335938 16.617188 -2.738281 15.140625 -1.53125 C 13.660156 -0.332031 11.664062 0.265625 9.15625 0.265625 C 6.644531 0.265625 4.625 -0.351562 3.09375 -1.59375 C 1.570312 -2.832031 0.71875 -4.523438 0.53125 -6.671875 L 5.6875 -6.671875 C 5.71875 -5.742188 6.023438 -5.015625 6.609375 -4.484375 C 7.191406 -3.953125 8.003906 -3.6875 9.046875 -3.6875 C 9.941406 -3.6875 10.648438 -3.851562 11.171875 -4.1875 C 11.691406 -4.519531 11.953125 -4.984375 11.953125 -5.578125 C 11.953125 -5.984375 11.765625 -6.332031 11.390625 -6.625 C 11.023438 -6.925781 10.554688 -7.128906 9.984375 -7.234375 L 6.46875 -7.921875 C 4.863281 -8.222656 3.601562 -8.835938 2.6875 -9.765625 C 1.769531 -10.703125 1.3125 -11.925781 1.3125 -13.4375 C 1.3125 -15.226562 2.019531 -16.695312 3.4375 -17.84375 C 4.863281 -19 6.660156 -19.578125 8.828125 -19.578125 C 11.140625 -19.578125 13.050781 -18.957031 14.5625 -17.71875 C 16.070312 -16.476562 16.898438 -14.828125 17.046875 -12.765625 L 11.90625 -12.765625 C 11.832031 -13.640625 11.519531 -14.335938 10.96875 -14.859375 C 10.425781 -15.378906 9.734375 -15.640625 8.890625 -15.640625 C 8.148438 -15.640625 7.5625 -15.460938 7.125 -15.109375 C 6.6875 -14.765625 6.46875 -14.320312 6.46875 -13.78125 C 6.46875 -12.976562 7.09375 -12.457031 8.34375 -12.21875 L 12.09375 -11.5 C 15.601562 -10.8125 17.359375 -9.085938 17.359375 -6.328125 Z M 17.359375 -6.328125 "/></g></g><g style="fill:#ffffff;fill-opacity:1;"><g transform="translate(121.082598, 27.612138)"><path style="stroke:none" d="M 11.421875 0 L 6.328125 0 L 6.328125 -14.71875 L 0.40625 -14.71875 L 0.40625 -19.328125 L 17.34375 -19.328125 L 17.34375 -14.71875 L 11.421875 -14.71875 Z M 11.421875 0 "/></g></g><g style="fill:#ffffff;fill-opacity:1;"><g transform="translate(138.82807, 27.612138)"><path style="stroke:none" d="M 18.609375 -19.328125 L 18.609375 -7.703125 C 18.609375 -5.296875 17.875 -3.34375 16.40625 -1.84375 C 14.945312 -0.34375 12.890625 0.40625 10.234375 0.40625 C 7.554688 0.40625 5.484375 -0.335938 4.015625 -1.828125 C 2.554688 -3.316406 1.828125 -5.273438 1.828125 -7.703125 L 1.828125 -19.328125 L 6.921875 -19.328125 L 6.921875 -7.625 C 6.921875 -6.507812 7.164062 -5.648438 7.65625 -5.046875 C 8.15625 -4.441406 9.015625 -4.140625 10.234375 -4.140625 C 11.429688 -4.140625 12.273438 -4.445312 12.765625 -5.0625 C 13.265625 -5.675781 13.515625 -6.53125 13.515625 -7.625 L 13.515625 -19.328125 Z M 18.609375 -19.328125 "/></g></g><g style="fill:#ffffff;fill-opacity:1;"><g transform="translate(159.26634, 27.612138)"><path style="stroke:none" d="M 9.421875 0 L 1.890625 0 L 1.890625 -19.328125 L 9.421875 -19.328125 C 12.453125 -19.328125 14.867188 -18.441406 16.671875 -16.671875 C 18.484375 -14.910156 19.390625 -12.609375 19.390625 -9.765625 C 19.390625 -6.929688 18.46875 -4.59375 16.625 -2.75 C 14.78125 -0.914062 12.378906 0 9.421875 0 Z M 6.96875 -14.9375 L 6.96875 -4.390625 L 9.125 -4.390625 C 12.476562 -4.390625 14.15625 -6.179688 14.15625 -9.765625 C 14.15625 -13.210938 12.476562 -14.9375 9.125 -14.9375 Z M 6.96875 -14.9375 "/></g></g><g style="fill:#ffffff;fill-opacity:1;"><g transform="translate(179.40839, 27.612138)"><path style="stroke:none" d="M 6.96875 0 L 1.890625 0 L 1.890625 -19.328125 L 6.96875 -19.328125 Z M 6.96875 0 "/></g></g><g style="fill:#ffffff;fill-opacity:1;"><g transform="translate(188.267661, 27.612138)"><path style="stroke:none" d="M 17.8125 -2.453125 C 15.894531 -0.546875 13.523438 0.40625 10.703125 0.40625 C 7.890625 0.40625 5.523438 -0.546875 3.609375 -2.453125 C 1.703125 -4.367188 0.75 -6.78125 0.75 -9.6875 C 0.75 -12.59375 1.703125 -14.992188 3.609375 -16.890625 C 5.523438 -18.785156 7.894531 -19.734375 10.71875 -19.734375 C 13.550781 -19.734375 15.921875 -18.785156 17.828125 -16.890625 C 19.742188 -14.992188 20.703125 -12.59375 20.703125 -9.6875 C 20.703125 -6.78125 19.738281 -4.367188 17.8125 -2.453125 Z M 7.234375 -5.734375 C 8.078125 -4.671875 9.234375 -4.140625 10.703125 -4.140625 C 12.179688 -4.140625 13.34375 -4.671875 14.1875 -5.734375 C 15.03125 -6.796875 15.453125 -8.113281 15.453125 -9.6875 C 15.453125 -11.269531 15.03125 -12.582031 14.1875 -13.625 C 13.34375 -14.664062 12.179688 -15.1875 10.703125 -15.1875 C 9.234375 -15.1875 8.078125 -14.664062 7.234375 -13.625 C 6.398438 -12.582031 5.984375 -11.269531 5.984375 -9.6875 C 5.984375 -8.113281 6.398438 -6.796875 7.234375 -5.734375 Z M 7.234375 -5.734375 "/></g></g></g></svg>