<svg xmlns="http://www.w3.org/2000/svg" xmlns:xlink="http://www.w3.org/1999/xlink" width="200" zoomAndPan="magnify" viewBox="0 0 1000 1000" height="200" preserveAspectRatio="xMidYMid meet" version="1.2"><defs/><g id="e25c51b510"><g style="fill:#ffffff;fill-opacity:1;"><g transform="translate(43.80961, 724.795588)"><path style="stroke:none" d="M 638.203125 -217.4375 C 638.203125 -149.65625 614.378906 -96.46875 566.734375 -57.875 C 519.085938 -19.289062 453.320312 0 369.4375 0 L 70.46875 0 L 70.46875 -722.765625 L 360.375 -722.765625 C 440.238281 -722.765625 502.988281 -705.816406 548.625 -671.921875 C 594.257812 -638.035156 617.078125 -589.890625 617.078125 -527.484375 C 617.078125 -465.742188 585.867188 -416.082031 523.453125 -378.5 C 599.953125 -346.28125 638.203125 -292.59375 638.203125 -217.4375 Z M 345.28125 -572.78125 L 242.59375 -572.78125 L 242.59375 -447.953125 L 345.28125 -447.953125 C 407.019531 -447.953125 437.890625 -469.09375 437.890625 -511.375 C 437.890625 -552.3125 407.019531 -572.78125 345.28125 -572.78125 Z M 354.34375 -297.96875 L 242.59375 -297.96875 L 242.59375 -149.984375 L 354.34375 -149.984375 C 424.132812 -149.984375 459.03125 -174.816406 459.03125 -224.484375 C 459.03125 -247.296875 450.304688 -265.242188 432.859375 -278.328125 C 415.410156 -291.421875 389.238281 -297.96875 354.34375 -297.96875 Z M 354.34375 -297.96875 "/></g></g><g style="fill:#000000;fill-opacity:1;"><g transform="translate(93.747816, 103.315254)"><path style="stroke:none" d="M 84.890625 -30.9375 C 84.890625 -21.195312 81.269531 -13.382812 74.03125 -7.5 C 66.800781 -1.625 57.039062 1.3125 44.75 1.3125 C 32.46875 1.3125 22.597656 -1.710938 15.140625 -7.765625 C 7.679688 -13.816406 3.507812 -22.109375 2.625 -32.640625 L 27.765625 -32.640625 C 27.941406 -28.078125 29.457031 -24.5 32.3125 -21.90625 C 35.164062 -19.320312 39.132812 -18.03125 44.21875 -18.03125 C 48.613281 -18.03125 52.082031 -18.84375 54.625 -20.46875 C 57.164062 -22.09375 58.4375 -24.351562 58.4375 -27.25 C 58.4375 -29.269531 57.535156 -31.003906 55.734375 -32.453125 C 53.941406 -33.898438 51.640625 -34.882812 48.828125 -35.40625 L 31.59375 -38.703125 C 23.78125 -40.191406 17.632812 -43.21875 13.15625 -47.78125 C 8.6875 -52.34375 6.453125 -58.3125 6.453125 -65.6875 C 6.453125 -74.457031 9.914062 -81.648438 16.84375 -87.265625 C 23.78125 -92.878906 32.554688 -95.6875 43.171875 -95.6875 C 54.492188 -95.6875 63.835938 -92.660156 71.203125 -86.609375 C 78.578125 -80.554688 82.613281 -72.484375 83.3125 -62.390625 L 58.171875 -62.390625 C 57.828125 -66.691406 56.316406 -70.113281 53.640625 -72.65625 C 50.960938 -75.195312 47.5625 -76.46875 43.4375 -76.46875 C 39.84375 -76.46875 36.96875 -75.613281 34.8125 -73.90625 C 32.664062 -72.195312 31.59375 -70.023438 31.59375 -67.390625 C 31.59375 -63.441406 34.660156 -60.894531 40.796875 -59.75 L 59.09375 -56.203125 C 76.289062 -52.867188 84.890625 -44.445312 84.890625 -30.9375 Z M 84.890625 -30.9375 "/></g></g><g style="fill:#000000;fill-opacity:1;"><g transform="translate(97.188185, 346.161829)"><path style="stroke:none" d="M 90.953125 -94.5 L 90.953125 -37.640625 C 90.953125 -25.878906 87.375 -16.335938 80.21875 -9.015625 C 73.070312 -1.691406 63.003906 1.96875 50.015625 1.96875 C 36.941406 1.96875 26.828125 -1.671875 19.671875 -8.953125 C 12.523438 -16.234375 8.953125 -25.796875 8.953125 -37.640625 L 8.953125 -94.5 L 33.828125 -94.5 L 33.828125 -37.25 C 33.828125 -31.8125 35.03125 -27.617188 37.4375 -24.671875 C 39.851562 -21.734375 44.046875 -20.265625 50.015625 -20.265625 C 55.898438 -20.265625 60.046875 -21.753906 62.453125 -24.734375 C 64.867188 -27.722656 66.078125 -31.894531 66.078125 -37.25 L 66.078125 -94.5 Z M 90.953125 -94.5 "/></g></g><g style="fill:#000000;fill-opacity:1;"><g transform="translate(101.775341, 233.727167)"><path style="stroke:none" d="M 55.8125 0 L 30.9375 0 L 30.9375 -72 L 1.96875 -72 L 1.96875 -94.5 L 84.765625 -94.5 L 84.765625 -72 L 55.8125 -72 Z M 55.8125 0 "/></g></g><g style="fill:#000000;fill-opacity:1;"><g transform="translate(101.775341, 466.292868)"><path style="stroke:none" d="M 46.0625 0 L 9.21875 0 L 9.21875 -94.5 L 46.0625 -94.5 C 60.894531 -94.5 72.71875 -90.175781 81.53125 -81.53125 C 90.351562 -72.894531 94.765625 -61.644531 94.765625 -47.78125 C 94.765625 -33.914062 90.265625 -22.484375 81.265625 -13.484375 C 72.273438 -4.492188 60.539062 0 46.0625 0 Z M 34.09375 -73.046875 L 34.09375 -21.453125 L 44.625 -21.453125 C 61.03125 -21.453125 69.234375 -30.226562 69.234375 -47.78125 C 69.234375 -64.625 61.03125 -73.046875 44.625 -73.046875 Z M 34.09375 -73.046875 "/></g></g><g style="fill:#000000;fill-opacity:1;"><g transform="translate(103.571241, 597.581295)"><path style="stroke:none" d="M 34.09375 0 L 9.21875 0 L 9.21875 -94.5 L 34.09375 -94.5 Z M 34.09375 0 "/></g></g><g style="fill:#000000;fill-opacity:1;"><g transform="translate(66.500939, 713.766849)"><path style="stroke:none" d="M 87.125 -12.046875 C 77.738281 -2.703125 66.15625 1.96875 52.375 1.96875 C 38.601562 1.96875 27.046875 -2.703125 17.703125 -12.046875 C 8.359375 -21.390625 3.6875 -33.164062 3.6875 -47.375 C 3.6875 -61.59375 8.359375 -73.332031 17.703125 -82.59375 C 27.046875 -91.851562 38.609375 -96.484375 52.390625 -96.484375 C 66.253906 -96.484375 77.859375 -91.851562 87.203125 -82.59375 C 96.546875 -73.332031 101.21875 -61.59375 101.21875 -47.375 C 101.21875 -33.164062 96.519531 -21.390625 87.125 -12.046875 Z M 35.40625 -28.03125 C 39.53125 -22.851562 45.191406 -20.265625 52.390625 -20.265625 C 59.585938 -20.265625 65.242188 -22.851562 69.359375 -28.03125 C 73.484375 -33.207031 75.546875 -39.65625 75.546875 -47.375 C 75.546875 -55.101562 73.484375 -61.507812 69.359375 -66.59375 C 65.242188 -71.6875 59.585938 -74.234375 52.390625 -74.234375 C 45.191406 -74.234375 39.53125 -71.6875 35.40625 -66.59375 C 31.28125 -61.507812 29.21875 -55.101562 29.21875 -47.375 C 29.21875 -39.65625 31.28125 -33.207031 35.40625 -28.03125 Z M 35.40625 -28.03125 "/></g></g></g></svg>