<svg xmlns="http://www.w3.org/2000/svg" xmlns:xlink="http://www.w3.org/1999/xlink" width="1488" zoomAndPan="magnify" viewBox="0 0 1116 158.249993" height="211" preserveAspectRatio="xMidYMid meet" version="1.2"><defs/><g id="ebd24e9876"><g style="fill:#000000;fill-opacity:1;"><g transform="translate(3.039705, 149.504708)"><path style="stroke:none" d="M 108.53125 0 L 99.65625 -26.828125 L 48.8125 -26.828125 L 39.734375 0 L 1.203125 0 L 54.875 -144.84375 L 96.625 -144.84375 L 149.6875 0 Z M 74.640625 -102.890625 L 59.109375 -56.890625 L 89.765625 -56.890625 Z M 74.640625 -102.890625 "/></g></g><g style="fill:#000000;fill-opacity:1;"><g transform="translate(153.929577, 149.504708)"><path style="stroke:none" d="M 52.25 0 L 14.125 0 L 14.125 -144.84375 L 73.4375 -144.84375 C 93.070312 -144.84375 108.234375 -140.640625 118.921875 -132.234375 C 129.609375 -123.828125 134.953125 -111.890625 134.953125 -96.421875 C 134.953125 -87.148438 132.296875 -78.847656 126.984375 -71.515625 C 121.671875 -64.179688 114.109375 -58.429688 104.296875 -54.265625 L 139.796875 0 L 94.40625 0 L 64.75 -48.21875 L 52.25 -48.21875 Z M 52.25 -113.375 L 52.25 -79.6875 L 71.8125 -79.6875 C 88.351562 -79.6875 96.625 -85.265625 96.625 -96.421875 C 96.625 -107.722656 88.351562 -113.375 71.8125 -113.375 Z M 52.25 -113.375 "/></g></g><g style="fill:#000000;fill-opacity:1;"><g transform="translate(294.733189, 149.504708)"><path style="stroke:none" d="M 85.53125 0 L 47.40625 0 L 47.40625 -110.34375 L 3.03125 -110.34375 L 3.03125 -144.84375 L 129.921875 -144.84375 L 129.921875 -110.34375 L 85.53125 -110.34375 Z M 85.53125 0 "/></g></g><g style="fill:#000000;fill-opacity:1;"><g transform="translate(427.669607, 149.504708)"><path style="stroke:none" d=""/></g></g><g style="fill:#000000;fill-opacity:1;"><g transform="translate(469.830005, 149.504708)"><path style="stroke:none" d="M 72.015625 -80.296875 L 91.390625 -60.109375 C 92.054688 -65.085938 92.390625 -69.460938 92.390625 -73.234375 L 124.0625 -73.234375 C 124.0625 -61.929688 120.703125 -49.757812 113.984375 -36.71875 L 149.28125 0 L 106.515625 0 L 94.40625 -12.3125 C 83.382812 -2.894531 71.28125 1.8125 58.09375 1.8125 C 42.5 1.8125 30.09375 -2.320312 20.875 -10.59375 C 11.664062 -18.863281 7.0625 -29.925781 7.0625 -43.78125 C 7.0625 -58.4375 14.660156 -70.539062 29.859375 -80.09375 C 26.085938 -86.539062 24.203125 -93.265625 24.203125 -100.265625 C 24.203125 -111.285156 28.503906 -120.394531 37.109375 -127.59375 C 45.722656 -134.789062 56.617188 -138.390625 69.796875 -138.390625 C 82.847656 -138.390625 93.304688 -134.859375 101.171875 -127.796875 C 109.035156 -120.734375 112.96875 -111.285156 112.96875 -99.453125 L 80.6875 -99.453125 C 79.882812 -106.984375 76.253906 -110.75 69.796875 -110.75 C 66.835938 -110.75 64.453125 -109.773438 62.640625 -107.828125 C 60.828125 -105.878906 59.921875 -103.289062 59.921875 -100.0625 C 59.921875 -97.238281 60.828125 -94.410156 62.640625 -91.578125 C 64.453125 -88.753906 67.578125 -84.992188 72.015625 -80.296875 Z M 40.140625 -45.796875 C 40.140625 -39.742188 41.953125 -35.035156 45.578125 -31.671875 C 49.210938 -28.304688 54.328125 -26.625 60.921875 -26.625 C 66.304688 -26.625 71.347656 -28.101562 76.046875 -31.0625 L 48.015625 -59.71875 C 42.765625 -56.351562 40.140625 -51.710938 40.140625 -45.796875 Z M 40.140625 -45.796875 "/></g></g><g style="fill:#000000;fill-opacity:1;"><g transform="translate(617.492306, 149.504708)"><path style="stroke:none" d=""/></g></g><g style="fill:#000000;fill-opacity:1;"><g transform="translate(659.652704, 149.504708)"><path style="stroke:none" d="M 123.65625 0 L 100.0625 -90.171875 L 76.453125 0 L 37.921875 0 L 1.203125 -144.84375 L 38.53125 -144.84375 L 58.09375 -58.5 L 81.09375 -144.84375 L 119.625 -144.84375 L 141.8125 -58.09375 L 161.59375 -144.84375 L 198.90625 -144.84375 L 162 0 Z M 123.65625 0 "/></g></g><g style="fill:#000000;fill-opacity:1;"><g transform="translate(859.763316, 149.504708)"><path style="stroke:none" d="M 116.609375 -33.078125 L 116.609375 0 L 14.125 0 L 14.125 -144.84375 L 115.1875 -144.84375 L 115.1875 -111.765625 L 52.25 -111.765625 L 52.25 -90.984375 L 109.34375 -90.984375 L 109.34375 -57.890625 L 52.25 -57.890625 L 52.25 -33.078125 Z M 116.609375 -33.078125 "/></g></g><g style="fill:#000000;fill-opacity:1;"><g transform="translate(984.025606, 149.504708)"><path style="stroke:none" d="M 127.90625 -43.578125 C 127.90625 -29.992188 123.128906 -19.332031 113.578125 -11.59375 C 104.023438 -3.863281 90.84375 0 74.03125 0 L 14.125 0 L 14.125 -144.84375 L 72.21875 -144.84375 C 88.226562 -144.84375 100.800781 -141.445312 109.9375 -134.65625 C 119.082031 -127.863281 123.65625 -118.210938 123.65625 -105.703125 C 123.65625 -93.335938 117.40625 -83.390625 104.90625 -75.859375 C 120.238281 -69.398438 127.90625 -58.640625 127.90625 -43.578125 Z M 69.1875 -114.78125 L 48.625 -114.78125 L 48.625 -89.765625 L 69.1875 -89.765625 C 81.5625 -89.765625 87.75 -94.003906 87.75 -102.484375 C 87.75 -110.679688 81.5625 -114.78125 69.1875 -114.78125 Z M 71.015625 -59.71875 L 48.625 -59.71875 L 48.625 -30.0625 L 71.015625 -30.0625 C 84.992188 -30.0625 91.984375 -35.035156 91.984375 -44.984375 C 91.984375 -49.554688 90.234375 -53.15625 86.734375 -55.78125 C 83.242188 -58.40625 78.003906 -59.71875 71.015625 -59.71875 Z M 71.015625 -59.71875 "/></g></g></g></svg>