<svg xmlns="http://www.w3.org/2000/svg" xmlns:xlink="http://www.w3.org/1999/xlink" width="1488" zoomAndPan="magnify" viewBox="0 0 1116 158.249993" height="211" preserveAspectRatio="xMidYMid meet" version="1.2"><defs/><g id="b27d8331fb"><g style="fill:#000000;fill-opacity:1;"><g transform="translate(3.985061, 117.812262)"><path style="stroke:none" d="M 47.0625 -105.671875 C 60.675781 -105.671875 70.613281 -102.734375 76.875 -96.859375 C 83.144531 -90.992188 86.28125 -82.929688 86.28125 -72.671875 C 86.28125 -66.453125 85 -60.675781 82.4375 -55.34375 C 79.875 -50.019531 75.609375 -45.726562 69.640625 -42.46875 C 63.671875 -39.21875 55.550781 -37.59375 45.28125 -37.59375 L 35.671875 -37.59375 L 35.671875 0 L 13.3125 0 L 13.3125 -105.671875 Z M 45.875 -87.3125 L 35.671875 -87.3125 L 35.671875 -55.9375 L 43.0625 -55.9375 C 49.382812 -55.9375 54.394531 -57.191406 58.09375 -59.703125 C 61.789062 -62.222656 63.640625 -66.296875 63.640625 -71.921875 C 63.640625 -82.179688 57.71875 -87.3125 45.875 -87.3125 Z M 45.875 -87.3125 "/></g></g><g style="fill:#000000;fill-opacity:1;"><g transform="translate(96.927647, 117.812262)"><path style="stroke:none" d="M 44.703125 -82.4375 C 55.546875 -82.4375 63.851562 -80.09375 69.625 -75.40625 C 75.40625 -70.71875 78.296875 -63.539062 78.296875 -53.875 L 78.296875 0 L 62.90625 0 L 58.609375 -10.953125 L 58.015625 -10.953125 C 54.566406 -6.609375 50.914062 -3.445312 47.0625 -1.46875 C 43.21875 0.5 37.941406 1.484375 31.234375 1.484375 C 24.023438 1.484375 18.050781 -0.585938 13.3125 -4.734375 C 8.582031 -8.878906 6.21875 -15.34375 6.21875 -24.125 C 6.21875 -32.707031 9.222656 -39.019531 15.234375 -43.0625 C 21.253906 -47.113281 30.285156 -49.382812 42.328125 -49.875 L 56.390625 -50.3125 L 56.390625 -53.875 C 56.390625 -58.113281 55.28125 -61.21875 53.0625 -63.1875 C 50.84375 -65.164062 47.757812 -66.15625 43.8125 -66.15625 C 39.863281 -66.15625 36.015625 -65.585938 32.265625 -64.453125 C 28.515625 -63.316406 24.765625 -61.910156 21.015625 -60.234375 L 13.765625 -75.1875 C 18.003906 -77.351562 22.785156 -79.101562 28.109375 -80.4375 C 33.441406 -81.769531 38.972656 -82.4375 44.703125 -82.4375 Z M 56.390625 -37.4375 L 47.796875 -37.140625 C 40.691406 -36.953125 35.757812 -35.671875 33 -33.296875 C 30.238281 -30.929688 28.859375 -27.820312 28.859375 -23.96875 C 28.859375 -20.613281 29.84375 -18.222656 31.8125 -16.796875 C 33.789062 -15.367188 36.359375 -14.65625 39.515625 -14.65625 C 44.253906 -14.65625 48.25 -16.0625 51.5 -18.875 C 54.757812 -21.6875 56.390625 -25.65625 56.390625 -30.78125 Z M 56.390625 -37.4375 "/></g></g><g style="fill:#000000;fill-opacity:1;"><g transform="translate(186.318284, 117.812262)"><path style="stroke:none" d="M 41 -82.28125 C 46.820312 -82.28125 52.269531 -81.515625 57.34375 -79.984375 C 62.425781 -78.460938 66.519531 -76.125 69.625 -72.96875 C 72.738281 -69.8125 74.296875 -65.765625 74.296875 -60.828125 C 74.296875 -55.992188 72.816406 -52.144531 69.859375 -49.28125 C 66.898438 -46.414062 63 -44.34375 58.15625 -43.0625 L 58.15625 -42.328125 C 61.613281 -41.535156 64.722656 -40.425781 67.484375 -39 C 70.242188 -37.570312 72.4375 -35.644531 74.0625 -33.21875 C 75.695312 -30.800781 76.515625 -27.570312 76.515625 -23.53125 C 76.515625 -19.09375 75.109375 -14.972656 72.296875 -11.171875 C 69.484375 -7.367188 65.113281 -4.304688 59.1875 -1.984375 C 53.269531 0.328125 45.773438 1.484375 36.703125 1.484375 C 23.285156 1.484375 12.925781 -0.191406 5.625 -3.546875 L 5.625 -21.75 C 8.976562 -20.175781 13.097656 -18.75 17.984375 -17.46875 C 22.867188 -16.1875 28.070312 -15.546875 33.59375 -15.546875 C 39.613281 -15.546875 44.695312 -16.234375 48.84375 -17.609375 C 52.988281 -18.992188 55.0625 -21.410156 55.0625 -24.859375 C 55.0625 -31.273438 47.410156 -34.484375 32.109375 -34.484375 L 23.53125 -34.484375 L 23.53125 -49.734375 L 31.671875 -49.734375 C 38.972656 -49.734375 44.617188 -50.320312 48.609375 -51.5 C 52.609375 -52.6875 54.609375 -54.90625 54.609375 -58.15625 C 54.609375 -60.726562 53.328125 -62.679688 50.765625 -64.015625 C 48.203125 -65.347656 44.007812 -66.015625 38.1875 -66.015625 C 34.332031 -66.015625 30.109375 -65.566406 25.515625 -64.671875 C 20.929688 -63.785156 16.671875 -62.503906 12.734375 -60.828125 L 6.21875 -76.21875 C 10.851562 -78 15.90625 -79.453125 21.375 -80.578125 C 26.851562 -81.710938 33.394531 -82.28125 41 -82.28125 Z M 41 -82.28125 "/></g></g><g style="fill:#000000;fill-opacity:1;"><g transform="translate(268.457021, 117.812262)"><path style="stroke:none" d="M 56.53125 -82.28125 C 65.613281 -82.28125 72.96875 -78.753906 78.59375 -71.703125 C 84.21875 -64.648438 87.03125 -54.265625 87.03125 -40.546875 C 87.03125 -26.734375 84.117188 -16.273438 78.296875 -9.171875 C 72.472656 -2.066406 65.019531 1.484375 55.9375 1.484375 C 50.125 1.484375 45.488281 0.421875 42.03125 -1.703125 C 38.582031 -3.828125 35.769531 -6.21875 33.59375 -8.875 L 32.40625 -8.875 C 33.195312 -4.726562 33.59375 -0.785156 33.59375 2.953125 L 33.59375 35.515625 L 11.546875 35.515625 L 11.546875 -80.8125 L 29.453125 -80.8125 L 32.5625 -70.296875 L 33.59375 -70.296875 C 35.769531 -73.554688 38.679688 -76.367188 42.328125 -78.734375 C 45.972656 -81.097656 50.707031 -82.28125 56.53125 -82.28125 Z M 49.4375 -64.671875 C 43.707031 -64.671875 39.660156 -62.867188 37.296875 -59.265625 C 34.929688 -55.671875 33.695312 -50.269531 33.59375 -43.0625 L 33.59375 -40.703125 C 33.59375 -32.910156 34.75 -26.914062 37.0625 -22.71875 C 39.382812 -18.519531 43.609375 -16.421875 49.734375 -16.421875 C 54.765625 -16.421875 58.488281 -18.519531 60.90625 -22.71875 C 63.320312 -26.914062 64.53125 -32.957031 64.53125 -40.84375 C 64.53125 -56.726562 59.5 -64.671875 49.4375 -64.671875 Z M 49.4375 -64.671875 "/></g></g><g style="fill:#000000;fill-opacity:1;"><g transform="translate(362.1396, 117.812262)"><path style="stroke:none" d="M 44.703125 -82.4375 C 55.546875 -82.4375 63.851562 -80.09375 69.625 -75.40625 C 75.40625 -70.71875 78.296875 -63.539062 78.296875 -53.875 L 78.296875 0 L 62.90625 0 L 58.609375 -10.953125 L 58.015625 -10.953125 C 54.566406 -6.609375 50.914062 -3.445312 47.0625 -1.46875 C 43.21875 0.5 37.941406 1.484375 31.234375 1.484375 C 24.023438 1.484375 18.050781 -0.585938 13.3125 -4.734375 C 8.582031 -8.878906 6.21875 -15.34375 6.21875 -24.125 C 6.21875 -32.707031 9.222656 -39.019531 15.234375 -43.0625 C 21.253906 -47.113281 30.285156 -49.382812 42.328125 -49.875 L 56.390625 -50.3125 L 56.390625 -53.875 C 56.390625 -58.113281 55.28125 -61.21875 53.0625 -63.1875 C 50.84375 -65.164062 47.757812 -66.15625 43.8125 -66.15625 C 39.863281 -66.15625 36.015625 -65.585938 32.265625 -64.453125 C 28.515625 -63.316406 24.765625 -61.910156 21.015625 -60.234375 L 13.765625 -75.1875 C 18.003906 -77.351562 22.785156 -79.101562 28.109375 -80.4375 C 33.441406 -81.769531 38.972656 -82.4375 44.703125 -82.4375 Z M 56.390625 -37.4375 L 47.796875 -37.140625 C 40.691406 -36.953125 35.757812 -35.671875 33 -33.296875 C 30.238281 -30.929688 28.859375 -27.820312 28.859375 -23.96875 C 28.859375 -20.613281 29.84375 -18.222656 31.8125 -16.796875 C 33.789062 -15.367188 36.359375 -14.65625 39.515625 -14.65625 C 44.253906 -14.65625 48.25 -16.0625 51.5 -18.875 C 54.757812 -21.6875 56.390625 -25.65625 56.390625 -30.78125 Z M 56.390625 -37.4375 "/></g></g><g style="fill:#000000;fill-opacity:1;"><g transform="translate(451.530248, 117.812262)"><path style="stroke:none" d="M 6.65625 -48.390625 C 6.65625 -66.253906 10.035156 -80.117188 16.796875 -89.984375 C 23.554688 -99.847656 34.726562 -106.160156 50.3125 -108.921875 C 55.445312 -109.816406 60.726562 -110.582031 66.15625 -111.21875 C 71.582031 -111.863281 77.15625 -112.53125 82.875 -113.21875 L 85.390625 -93.984375 C 82.035156 -93.585938 78.359375 -93.140625 74.359375 -92.640625 C 70.367188 -92.148438 66.398438 -91.679688 62.453125 -91.234375 C 58.503906 -90.796875 55.050781 -90.332031 52.09375 -89.84375 C 47.164062 -89.050781 43.070312 -87.835938 39.8125 -86.203125 C 36.550781 -84.578125 34.03125 -81.988281 32.25 -78.4375 C 30.476562 -74.882812 29.445312 -69.753906 29.15625 -63.046875 L 30.1875 -63.046875 C 31.375 -64.828125 33.023438 -66.675781 35.140625 -68.59375 C 37.265625 -70.519531 39.878906 -72.125 42.984375 -73.40625 C 46.097656 -74.6875 49.726562 -75.328125 53.875 -75.328125 C 63.539062 -75.328125 71.207031 -72.34375 76.875 -66.375 C 82.550781 -60.40625 85.390625 -51.597656 85.390625 -39.953125 C 85.390625 -30.785156 83.710938 -23.117188 80.359375 -16.953125 C 77.003906 -10.785156 72.367188 -6.171875 66.453125 -3.109375 C 60.535156 -0.046875 53.675781 1.484375 45.875 1.484375 C 33.9375 1.484375 24.414062 -2.804688 17.3125 -11.390625 C 10.207031 -19.972656 6.65625 -32.304688 6.65625 -48.390625 Z M 47.21875 -16.421875 C 51.851562 -16.421875 55.625 -18 58.53125 -21.15625 C 61.445312 -24.320312 62.90625 -29.945312 62.90625 -38.03125 C 62.90625 -44.445312 61.84375 -49.550781 59.71875 -53.34375 C 57.59375 -57.144531 53.914062 -59.046875 48.6875 -59.046875 C 45.53125 -59.046875 42.59375 -58.28125 39.875 -56.75 C 37.164062 -55.226562 34.875 -53.476562 33 -51.5 C 31.125 -49.53125 29.84375 -47.90625 29.15625 -46.625 C 29.15625 -41.59375 29.695312 -36.753906 30.78125 -32.109375 C 31.863281 -27.472656 33.710938 -23.695312 36.328125 -20.78125 C 38.941406 -17.875 42.570312 -16.421875 47.21875 -16.421875 Z M 47.21875 -16.421875 "/></g></g><g style="fill:#000000;fill-opacity:1;"><g transform="translate(543.584838, 117.812262)"><path style="stroke:none" d="M 84.953125 -40.546875 C 84.953125 -27.128906 81.421875 -16.769531 74.359375 -9.46875 C 67.304688 -2.164062 57.710938 1.484375 45.578125 1.484375 C 38.085938 1.484375 31.40625 -0.140625 25.53125 -3.390625 C 19.65625 -6.648438 15.039062 -11.410156 11.6875 -17.671875 C 8.332031 -23.941406 6.65625 -31.566406 6.65625 -40.546875 C 6.65625 -53.972656 10.15625 -64.285156 17.15625 -71.484375 C 24.164062 -78.679688 33.789062 -82.28125 46.03125 -82.28125 C 53.625 -82.28125 60.332031 -80.648438 66.15625 -77.390625 C 71.976562 -74.140625 76.566406 -69.40625 79.921875 -63.1875 C 83.273438 -56.976562 84.953125 -49.429688 84.953125 -40.546875 Z M 29.15625 -40.546875 C 29.15625 -32.554688 30.460938 -26.515625 33.078125 -22.421875 C 35.691406 -18.328125 39.957031 -16.28125 45.875 -16.28125 C 51.695312 -16.28125 55.914062 -18.328125 58.53125 -22.421875 C 61.144531 -26.515625 62.453125 -32.554688 62.453125 -40.546875 C 62.453125 -48.546875 61.144531 -54.539062 58.53125 -58.53125 C 55.914062 -62.53125 51.648438 -64.53125 45.734375 -64.53125 C 39.910156 -64.53125 35.691406 -62.53125 33.078125 -58.53125 C 30.460938 -54.539062 29.15625 -48.546875 29.15625 -40.546875 Z M 29.15625 -40.546875 "/></g></g><g style="fill:#000000;fill-opacity:1;"><g transform="translate(633.71541, 117.812262)"><path style="stroke:none" d="M 78.4375 -64.234375 L 51.953125 -64.234375 L 51.953125 0 L 29.890625 0 L 29.890625 -64.234375 L 3.40625 -64.234375 L 3.40625 -80.8125 L 78.4375 -80.8125 Z M 78.4375 -64.234375 "/></g></g><g style="fill:#000000;fill-opacity:1;"><g transform="translate(715.558175, 117.812262)"><path style="stroke:none" d="M 30.9375 -80.8125 L 30.9375 -51.203125 C 30.9375 -44.203125 34.191406 -40.703125 40.703125 -40.703125 C 44.941406 -40.703125 48.882812 -41.171875 52.53125 -42.109375 C 56.1875 -43.046875 59.835938 -44.300781 63.484375 -45.875 L 63.484375 -80.8125 L 85.546875 -80.8125 L 85.546875 0 L 63.484375 0 L 63.484375 -32.109375 C 60.035156 -30.234375 56.085938 -28.53125 51.640625 -27 C 47.203125 -25.476562 42.175781 -24.71875 36.5625 -24.71875 C 28.164062 -24.71875 21.453125 -26.863281 16.421875 -31.15625 C 11.390625 -35.445312 8.875 -41.984375 8.875 -50.765625 L 8.875 -80.8125 Z M 30.9375 -80.8125 "/></g></g><g style="fill:#000000;fill-opacity:1;"><g transform="translate(812.644733, 117.812262)"><path style="stroke:none" d="M 32.859375 -80.8125 L 32.859375 -48.84375 C 32.859375 -47.164062 32.78125 -45.09375 32.625 -42.625 C 32.476562 -40.15625 32.332031 -37.640625 32.1875 -35.078125 C 32.039062 -32.515625 31.867188 -30.21875 31.671875 -28.1875 C 31.472656 -26.164062 31.328125 -24.8125 31.234375 -24.125 L 68.53125 -80.8125 L 95.015625 -80.8125 L 95.015625 0 L 73.703125 0 L 73.703125 -32.265625 C 73.703125 -34.828125 73.800781 -37.734375 74 -40.984375 C 74.195312 -44.242188 74.414062 -47.28125 74.65625 -50.09375 C 74.90625 -52.90625 75.082031 -55.050781 75.1875 -56.53125 L 38.03125 0 L 11.546875 0 L 11.546875 -80.8125 Z M 32.859375 -80.8125 "/></g></g><g style="fill:#000000;fill-opacity:1;"><g transform="translate(919.203123, 117.812262)"><path style="stroke:none" d="M 64.53125 -80.8125 L 88.796875 -80.8125 L 56.828125 -42.03125 L 91.609375 0 L 66.59375 0 L 33.59375 -41 L 33.59375 0 L 11.546875 0 L 11.546875 -80.8125 L 33.59375 -80.8125 L 33.59375 -41.59375 Z M 64.53125 -80.8125 "/></g></g><g style="fill:#000000;fill-opacity:1;"><g transform="translate(1010.813681, 117.812262)"><path style="stroke:none" d="M 32.859375 -80.8125 L 32.859375 -48.84375 C 32.859375 -47.164062 32.78125 -45.09375 32.625 -42.625 C 32.476562 -40.15625 32.332031 -37.640625 32.1875 -35.078125 C 32.039062 -32.515625 31.867188 -30.21875 31.671875 -28.1875 C 31.472656 -26.164062 31.328125 -24.8125 31.234375 -24.125 L 68.53125 -80.8125 L 95.015625 -80.8125 L 95.015625 0 L 73.703125 0 L 73.703125 -32.265625 C 73.703125 -34.828125 73.800781 -37.734375 74 -40.984375 C 74.195312 -44.242188 74.414062 -47.28125 74.65625 -50.09375 C 74.90625 -52.90625 75.082031 -55.050781 75.1875 -56.53125 L 38.03125 0 L 11.546875 0 L 11.546875 -80.8125 Z M 32.859375 -80.8125 "/></g></g></g></svg>